<svg xmlns="http://www.w3.org/2000/svg" viewBox="0 0 512 512" role="img" aria-labelledby="title desc">
  <title id="title">ssvault Lite app icon</title>
  <desc id="desc">Placeholder icon for ssvault Lite with a stylized vault shape.</desc>
  <defs>
    <linearGradient id="bg" x1="0" y1="0" x2="1" y2="1">
      <stop offset="0%" stop-color="#0f172a" />
      <stop offset="100%" stop-color="#030712" />
    </linearGradient>
    <linearGradient id="accent" x1="0" y1="0" x2="1" y2="1">
      <stop offset="0%" stop-color="#7dd3fc" />
      <stop offset="100%" stop-color="#38bdf8" />
    </linearGradient>
  </defs>
  <rect width="512" height="512" rx="128" fill="url(#bg)" />
  <path d="M160 152c0-13.255 10.745-24 24-24h144c13.255 0 24 10.745 24 24v64h-48v-40H208v40h-48v-64Z" fill="url(#accent)" />
  <path d="M128 224c0-22.091 17.909-40 40-40h176c22.091 0 40 17.909 40 40v112c0 22.091-17.909 40-40 40H168c-22.091 0-40-17.909-40-40V224Z" fill="#111827" stroke="#7dd3fc" stroke-width="20" />
  <circle cx="256" cy="280" r="36" fill="url(#accent)" />
  <rect x="244" y="280" width="24" height="64" rx="12" fill="url(#accent)" />
</svg>
