<svg xmlns="http://www.w3.org/2000/svg" viewBox="0 0 1200 630" role="img" aria-labelledby="title desc">
  <title id="title">ssvault Lite OG image</title>
  <desc id="desc">Open Graph placeholder for ssvault Lite baseline.</desc>
  <defs>
    <linearGradient id="bg" x1="0" y1="0" x2="1" y2="1">
      <stop offset="0%" stop-color="#0f172a" />
      <stop offset="55%" stop-color="#030712" />
      <stop offset="100%" stop-color="#082f49" />
    </linearGradient>
    <linearGradient id="accent" x1="0" y1="0" x2="1" y2="1">
      <stop offset="0%" stop-color="#7dd3fc" />
      <stop offset="100%" stop-color="#38bdf8" />
    </linearGradient>
  </defs>
  <rect width="1200" height="630" fill="url(#bg)" />
  <circle cx="1040" cy="96" r="160" fill="#38bdf8" fill-opacity="0.1" />
  <circle cx="160" cy="560" r="180" fill="#38bdf8" fill-opacity="0.08" />
  <g transform="translate(96 86)">
    <rect width="112" height="112" rx="28" fill="#030712" stroke="#7dd3fc" stroke-width="8" />
    <path d="M31 44c0-10.493 8.507-19 19-19h22c10.493 0 19 8.507 19 19v24H74V53H48v15H31V44Z" fill="url(#accent)" />
    <rect x="20" y="66" width="82" height="54" rx="20" fill="#111827" stroke="#7dd3fc" stroke-width="6" />
    <circle cx="61" cy="91" r="11" fill="#bae6fd" />
    <rect x="57" y="91" width="8" height="20" rx="4" fill="#bae6fd" />
  </g>
  <text x="96" y="290" fill="#e2e8f0" font-family="Inter, Segoe UI, Arial, sans-serif" font-size="64" font-weight="700">
    ssvault Lite
  </text>
  <text x="96" y="360" fill="#bae6fd" font-family="Inter, Segoe UI, Arial, sans-serif" font-size="34" font-weight="600">
    Derivación local real con Argon2id + HKDF-SHA-256
  </text>
  <text x="96" y="425" fill="#cbd5e1" font-family="Inter, Segoe UI, Arial, sans-serif" font-size="28">
    Sin backend para secretos · Web Worker primero · contrato Lite v1 congelado
  </text>
</svg>
